<?xml version="1.0" encoding="UTF-8" standalone="no"?>
<!-- Generator: Adobe Illustrator 19.0.0, SVG Export Plug-In . SVG Version: 6.00 Build 0)  -->

<svg
   version="1.1"
   id="Capa_1"
   x="0px"
   y="0px"
   viewBox="0 0 511.995 511.995"
   style="enable-background:new 0 0 511.995 511.995;"
   xml:space="preserve"
   sodipodi:docname="cancel.svg"
   inkscape:version="1.3.2 (091e20e, 2023-11-25, custom)"
   xmlns:inkscape="http://www.inkscape.org/namespaces/inkscape"
   xmlns:sodipodi="http://sodipodi.sourceforge.net/DTD/sodipodi-0.dtd"
   xmlns="http://www.w3.org/2000/svg"
   xmlns:svg="http://www.w3.org/2000/svg"><defs
   id="defs19" /><sodipodi:namedview
   id="namedview19"
   pagecolor="#505050"
   bordercolor="#eeeeee"
   borderopacity="1"
   inkscape:showpageshadow="0"
   inkscape:pageopacity="0"
   inkscape:pagecheckerboard="0"
   inkscape:deskcolor="#505050"
   inkscape:zoom="1.5703279"
   inkscape:cx="255.67909"
   inkscape:cy="255.9975"
   inkscape:window-width="1920"
   inkscape:window-height="1013"
   inkscape:window-x="-9"
   inkscape:window-y="29"
   inkscape:window-maximized="1"
   inkscape:current-layer="Capa_1" />
<g
   id="g2">
	<g
   id="g1">
		<path
   d="M437.126,74.939c-99.826-99.826-262.307-99.826-362.133,0C26.637,123.314,0,187.617,0,256.005    s26.637,132.691,74.993,181.047c49.923,49.923,115.495,74.874,181.066,74.874s131.144-24.951,181.066-74.874    C536.951,337.226,536.951,174.784,437.126,74.939z M409.08,409.006c-84.375,84.375-221.667,84.375-306.042,0    c-40.858-40.858-63.37-95.204-63.37-153.001s22.512-112.143,63.37-153.021c84.375-84.375,221.667-84.355,306.042,0    C493.435,187.359,493.435,324.651,409.08,409.006z"
   id="path1" />
	</g>
</g>
<g
   id="g4">
	<g
   id="g3">
		<path
   d="M341.525,310.827l-56.151-56.071l56.151-56.071c7.735-7.735,7.735-20.29,0.02-28.046    c-7.755-7.775-20.31-7.755-28.065-0.02l-56.19,56.111l-56.19-56.111c-7.755-7.735-20.31-7.755-28.065,0.02    c-7.735,7.755-7.735,20.31,0.02,28.046l56.151,56.071l-56.151,56.071c-7.755,7.735-7.755,20.29-0.02,28.046    c3.868,3.887,8.965,5.811,14.043,5.811s10.155-1.944,14.023-5.792l56.19-56.111l56.19,56.111    c3.868,3.868,8.945,5.792,14.023,5.792c5.078,0,10.175-1.944,14.043-5.811C349.28,331.117,349.28,318.562,341.525,310.827z"
   id="path2" />
	</g>
</g>
<g
   id="g5">
</g>
<g
   id="g6">
</g>
<g
   id="g7">
</g>
<g
   id="g8">
</g>
<g
   id="g9">
</g>
<g
   id="g10">
</g>
<g
   id="g11">
</g>
<g
   id="g12">
</g>
<g
   id="g13">
</g>
<g
   id="g14">
</g>
<g
   id="g15">
</g>
<g
   id="g16">
</g>
<g
   id="g17">
</g>
<g
   id="g18">
</g>
<g
   id="g19">
</g>
<path
   style="fill:#ffffff;stroke-width:0.63681"
   d="M 231.09074,510.3834 C 154.20259,502.75549 85.045941,461.03991 42.678678,396.73244 34.704956,384.62946 30.824222,377.81322 25.196471,366.02613 15.201249,345.09154 8.065126,322.82807 4.2150819,300.56782 1.3464491,283.98191 0.67310409,275.5089 0.67310409,255.9975 c 0,-19.51141 0.67334501,-27.98441 3.54197781,-44.57033 C 16.587878,139.88993 60.546739,75.661773 123.22313,37.544874 153.85086,18.918497 186.98891,7.4210949 225.11223,2.1939796 c 9.99732,-1.37074113 40.44956,-1.94861247 51.6007,-0.9791913 53.63504,4.6627504 102.95158,24.8088127 143.26306,58.5236957 70.49745,58.961196 104.05939,151.833796 87.49255,242.109316 -14.46115,78.80121 -64.31339,145.79481 -135.25327,181.75917 -30.08962,15.25453 -61.39913,24.22009 -94.56624,27.07931 -10.29324,0.88734 -36.26401,0.71839 -46.55829,-0.30288 z m 51.97117,-39.44797 c 37.55858,-5.17442 69.47453,-17.64381 99.34231,-38.81248 18.96163,-13.43899 40.21291,-35.349 53.47406,-55.13161 19.25276,-28.72074 31.09995,-61.0027 35.40608,-96.47667 1.47151,-12.12239 1.47736,-36.82847 0.0116,-49.03435 -5.83661,-48.6034 -26.15514,-91.56406 -59.5985,-126.01257 -35.89406,-36.972881 -78.96097,-58.150972 -131.8196,-64.822117 -8.88762,-1.121683 -38.8731,-1.121683 -47.76073,0 -36.58727,4.617582 -66.79714,15.597583 -95.83986,34.833714 -53.371423,35.349983 -87.847016,91.620393 -95.578238,156.000973 -1.458726,12.14732 -1.458726,36.88703 0,49.03435 7.77257,64.72491 42.071913,120.49556 96.215048,156.44545 11.24483,7.46632 30.97762,17.4628 43.76707,22.17205 18.4249,6.78431 38.26273,11.10057 59.71451,12.99251 6.6363,0.5853 35.65718,-0.22362 42.66625,-1.18925 z"
   id="path19" /><path
   style="fill:#ffffff;stroke-width:0.63681"
   d="m 182.12757,343.6614 c -5.82796,-1.93041 -10.06806,-5.39825 -12.58338,-10.29152 -1.85873,-3.61597 -2.22676,-10.61444 -0.79102,-15.04206 1.04148,-3.21174 2.98197,-5.3024 31.10757,-33.51468 l 29.9968,-30.08926 -29.99045,-30.08926 c -33.0195,-33.1283 -32.06774,-31.9423 -32.06774,-39.95981 0,-5.13294 1.55772,-9.06358 5.14924,-12.99328 4.0986,-4.48452 8.27196,-6.34114 14.27346,-6.34991 8.08911,-0.0118 7.48499,-0.49518 40.12813,32.10701 16.1163,16.09609 29.58072,29.26562 29.92094,29.26562 0.34021,0 13.80464,-13.1664 29.92093,-29.25867 32.5975,-32.54888 31.96393,-32.042 40.12813,-32.10424 5.39141,-0.0411 10.15109,1.91364 13.91301,5.7139 3.81746,3.85635 5.05897,6.81183 5.31998,12.66436 0.4054,9.09045 1.4134,7.79691 -32.28418,41.42932 l -29.60824,29.55098 30.00878,30.10125 c 28.13715,28.22387 30.07805,30.31488 31.11953,33.52667 1.46108,4.50577 1.06937,11.41982 -0.86025,15.18434 -3.28911,6.41673 -10.14713,10.64895 -17.29022,10.67013 -8.29912,0.0246 -7.28547,0.83053 -40.13434,-31.90975 -16.29483,-16.24097 -29.90254,-29.52904 -30.23934,-29.52904 -0.3368,0 -13.79843,13.16953 -29.91473,29.26562 -22.97008,22.94127 -29.94322,29.54759 -32.2679,30.57043 -3.83582,1.68773 -9.65773,2.17392 -12.95471,1.08185 z"
   id="path20" /></svg>
