<?xml version="1.0" encoding="UTF-8" standalone="no"?>
<svg
   id="Bold"
   enable-background="new 0 0 24 24"
   height="512"
   viewBox="0 0 24 24"
   width="512"
   version="1.1"
   sodipodi:docname="facebook.svg"
   inkscape:version="1.3.2 (091e20e, 2023-11-25, custom)"
   xmlns:inkscape="http://www.inkscape.org/namespaces/inkscape"
   xmlns:sodipodi="http://sodipodi.sourceforge.net/DTD/sodipodi-0.dtd"
   xmlns="http://www.w3.org/2000/svg"
   xmlns:svg="http://www.w3.org/2000/svg">
  <defs
     id="defs1" />
  <sodipodi:namedview
     id="namedview1"
     pagecolor="#505050"
     bordercolor="#eeeeee"
     borderopacity="1"
     inkscape:showpageshadow="0"
     inkscape:pageopacity="0"
     inkscape:pagecheckerboard="0"
     inkscape:deskcolor="#505050"
     inkscape:zoom="1.5703125"
     inkscape:cx="255.68159"
     inkscape:cy="256"
     inkscape:window-width="1920"
     inkscape:window-height="1013"
     inkscape:window-x="-9"
     inkscape:window-y="29"
     inkscape:window-maximized="1"
     inkscape:current-layer="Bold" />
  <path
     d="m15.997 3.985h2.191v-3.816c-.378-.052-1.678-.169-3.192-.169-3.159 0-5.323 1.987-5.323 5.639v3.361h-3.486v4.266h3.486v10.734h4.274v-10.733h3.345l.531-4.266h-3.877v-2.939c.001-1.233.333-2.077 2.051-2.077z"
     id="path1" />
  <path
     style="fill:#ffffff;stroke-width:0.636816"
     d="M 206.64677,397.37313 V 282.74627 H 169.39303 132.1393 v -45.21393 -45.21393 h 37.2079 37.2079 l 0.26477,-44.41791 c 0.27674,-46.42623 0.33293,-47.47597 3.33275,-62.25542 1.45847,-7.185589 6.12997,-20.923682 9.50856,-27.963096 8.88295,-18.507957 23.99109,-34.24543 42.38857,-44.154296 10.57914,-5.6979114 24.85109,-10.1108794 38.70261,-11.967064 14.53623,-1.94794029 64.69187,-0.74326822 84.04366,2.0186177 l 2.70647,0.3862668 V 44.331013 84.696517 l -26.26866,0.0038 c -28.63468,0.0041 -34.95563,0.513311 -42.73947,3.443142 -10.20571,3.84142 -16.30877,10.750396 -19.17522,21.707331 -1.85339,7.08455 -2.2224,15.1597 -2.23348,48.87562 l -0.011,33.59204 h 41.39303 c 22.76617,0 41.37681,0.21492 41.35697,0.47761 -0.0198,0.26269 -2.53359,20.53731 -5.58613,45.05473 l -5.55006,44.57711 -35.80691,0.16451 -35.8069,0.1645 V 397.37844 512 H 251.8607 206.64677 Z"
     id="path2"
     transform="scale(0.046875)" />
</svg>
