<?xml version="1.0" encoding="UTF-8" standalone="no"?>
<!-- Uploaded to: SVG Repo, www.svgrepo.com, Generator: SVG Repo Mixer Tools -->

<svg
   fill="#000000"
   width="800px"
   height="800px"
   viewBox="0 0 32 32"
   version="1.1"
   id="svg1"
   sodipodi:docname="indeed.svg"
   inkscape:version="1.3.2 (091e20e, 2023-11-25, custom)"
   xmlns:inkscape="http://www.inkscape.org/namespaces/inkscape"
   xmlns:sodipodi="http://sodipodi.sourceforge.net/DTD/sodipodi-0.dtd"
   xmlns="http://www.w3.org/2000/svg"
   xmlns:svg="http://www.w3.org/2000/svg">
  <defs
     id="defs1" />
  <sodipodi:namedview
     id="namedview1"
     pagecolor="#505050"
     bordercolor="#eeeeee"
     borderopacity="1"
     inkscape:showpageshadow="0"
     inkscape:pageopacity="0"
     inkscape:pagecheckerboard="0"
     inkscape:deskcolor="#505050"
     inkscape:zoom="1.005"
     inkscape:cx="399.50249"
     inkscape:cy="400"
     inkscape:window-width="1920"
     inkscape:window-height="1013"
     inkscape:window-x="-9"
     inkscape:window-y="29"
     inkscape:window-maximized="1"
     inkscape:current-layer="svg1" />
  <path
     d="M19.76 13.745c-3.197 1.64-6.776-1.417-5.661-4.833 1.12-3.417 5.813-3.767 7.423-0.552 1.005 1.973 0.219 4.389-1.761 5.389zM15.469 0.76c3.291-1.197 7.057-1.135 9.875 1.313 0.593 0.489 1.063 1.115 1.364 1.828 0.281 0.916-1-0.095-1.172-0.224-0.891-0.609-1.853-1.099-2.869-1.464-5.552-1.697-10.803 1.396-14.047 6.208-1.323 2.12-2.333 4.423-3 6.833-0.063 0.297-0.156 0.584-0.281 0.86-0.145 0.271-0.068-0.735-0.068-0.765 0.12-1.005 0.313-2.005 0.573-2.985 1.505-5.244 4.839-9.609 9.625-11.609zM15.516 28.755v-11.687c0.333 0.036 0.645 0.052 0.979 0.052 1.516 0.005 3-0.412 4.297-1.193v12.823c0 1.1-0.204 1.907-0.699 2.439-0.495 0.541-1.197 0.839-1.932 0.812-0.724 0.027-1.421-0.271-1.907-0.812-0.489-0.537-0.744-1.349-0.744-2.433z"
     id="path1" />
  <path
     style="fill:#ffffff;stroke-width:0.995025"
     d="M 132.12877,390.29851 C 133.53241,359.27216 144.75529,309.94658 159.2734,270.99542 185.42078,200.84369 221.23578,144.6781 270.00543,97.343864 302.08147,66.2119 335.40321,43.131335 374.41336,25.024894 423.57681,2.2058265 489.81891,-5.3278375 541.22488,6.0535453 c 4.96313,1.0988471 14.97515,3.9807517 22.24893,6.4042317 37.6912,12.557964 74.34333,38.366552 92.87281,65.396364 5.94715,8.675391 11.93246,21.642595 11.59977,25.130929 -0.26352,2.76302 -0.56399,2.97648 -4.03909,2.86954 -4.01295,-0.1235 -8.27099,-2.56057 -28.77721,-16.470557 C 606.51935,69.976522 574.8212,55.780101 545.77114,49.363498 516.54309,42.90758 481.20082,41.503251 453.23383,45.686517 373.28384,57.645335 298.4148,103.88777 238.67988,178.20454 c -40.37315,50.22861 -75.40472,121.95304 -97.86137,200.36359 -4.89852,17.1039 -7.48523,24.41694 -8.63654,24.41694 -0.34493,0 -0.36887,-5.70895 -0.0532,-12.68656 z"
     id="path2"
     transform="scale(0.04)" />
  <path
     style="fill:#ffffff;stroke-width:0.995025"
     d="m 431.50917,353.1787 c -2.91871,-0.52106 -9.51871,-2.34403 -14.66666,-4.05107 -32.3766,-10.73588 -57.04055,-37.27444 -66.30179,-71.34113 -1.67887,-6.17558 -2.08148,-10.58897 -2.10366,-23.06013 -0.024,-13.50418 0.29236,-16.61358 2.54302,-24.99392 9.89458,-36.84237 36.05637,-63.10099 72.403,-72.67098 11.68143,-3.0757 32.74672,-3.56803 44.89415,-1.04927 24.18693,5.01516 45.50276,18.71221 60.66556,38.98224 13.8348,18.49475 21.70159,47.53277 18.89257,69.73661 -3.12863,24.73031 -11.71339,42.41917 -28.94413,59.63928 -13.76487,13.75638 -27.74624,21.86306 -46.45035,26.93286 -8.9,2.41237 -31.99643,3.47066 -40.93171,1.87551 z"
     id="path3"
     transform="scale(0.04)" />
  <path
     style="fill:#ffffff;stroke-width:0.995025"
     d="m 443.78109,798.93995 c -17.73082,-2.3988 -34.88887,-13.81242 -43.95554,-29.23945 -4.46096,-7.59036 -8.84737,-20.79493 -10.20411,-30.71777 -0.71699,-5.24382 -1.06423,-57.35484 -1.06423,-159.71033 V 427.34552 l 10.69652,0.74825 c 36.54919,2.55672 78.50093,-6.43433 110.43831,-23.669 4.50972,-2.43362 8.43629,-4.42477 8.72569,-4.42477 0.28941,0 0.39654,77.12687 0.23807,171.39303 l -0.28812,171.39304 -2.23945,8.359 c -1.23169,4.59746 -3.56079,11.12763 -5.17577,14.51151 -8.49925,17.80858 -26.28986,30.37415 -47.09411,33.26272 -8.63251,1.19859 -11.34982,1.20139 -20.07726,0.0206 z"
     id="path4"
     transform="scale(0.04)" />
</svg>
