<?xml version="1.0" encoding="UTF-8" standalone="no"?>
<svg
   viewBox="0 0 512.00096 512.00096"
   version="1.1"
   id="svg3"
   sodipodi:docname="instagram.svg"
   inkscape:version="1.3.2 (091e20e, 2023-11-25, custom)"
   xmlns:inkscape="http://www.inkscape.org/namespaces/inkscape"
   xmlns:sodipodi="http://sodipodi.sourceforge.net/DTD/sodipodi-0.dtd"
   xmlns="http://www.w3.org/2000/svg"
   xmlns:svg="http://www.w3.org/2000/svg">
  <defs
     id="defs3" />
  <sodipodi:namedview
     id="namedview3"
     pagecolor="#505050"
     bordercolor="#eeeeee"
     borderopacity="1"
     inkscape:showpageshadow="0"
     inkscape:pageopacity="0"
     inkscape:pagecheckerboard="0"
     inkscape:deskcolor="#505050"
     inkscape:zoom="1.5703095"
     inkscape:cx="255.68208"
     inkscape:cy="256.00049"
     inkscape:window-width="1920"
     inkscape:window-height="1013"
     inkscape:window-x="-9"
     inkscape:window-y="29"
     inkscape:window-maximized="1"
     inkscape:current-layer="svg3" />
  <path
     d="m373.40625 0h-234.8125c-76.421875 0-138.59375 62.171875-138.59375 138.59375v234.816406c0 76.417969 62.171875 138.589844 138.59375 138.589844h234.816406c76.417969 0 138.589844-62.171875 138.589844-138.589844v-234.816406c0-76.421875-62.171875-138.59375-138.59375-138.59375zm-117.40625 395.996094c-77.195312 0-139.996094-62.800782-139.996094-139.996094s62.800782-139.996094 139.996094-139.996094 139.996094 62.800782 139.996094 139.996094-62.800782 139.996094-139.996094 139.996094zm143.34375-246.976563c-22.8125 0-41.367188-18.554687-41.367188-41.367187s18.554688-41.371094 41.367188-41.371094 41.371094 18.558594 41.371094 41.371094-18.558594 41.367187-41.371094 41.367187zm0 0"
     id="path1" />
  <path
     d="m256 146.019531c-60.640625 0-109.980469 49.335938-109.980469 109.980469 0 60.640625 49.339844 109.980469 109.980469 109.980469 60.644531 0 109.980469-49.339844 109.980469-109.980469 0-60.644531-49.335938-109.980469-109.980469-109.980469zm0 0"
     id="path2" />
  <path
     d="m399.34375 96.300781c-6.257812 0-11.351562 5.09375-11.351562 11.351563 0 6.257812 5.09375 11.351562 11.351562 11.351562 6.261719 0 11.355469-5.089844 11.355469-11.351562 0-6.261719-5.09375-11.351563-11.355469-11.351563zm0 0"
     id="path3" />
  <path
     style="fill:#ffffff;stroke-width:0.636817"
     d="M 130.2291,511.34278 C 87.238675,508.84549 47.699016,485.92018 23.178945,449.27449 17.70514,441.09379 10.479196,426.22461 7.4022853,416.81008 4.3631087,407.511 1.9394089,396.11888 0.98347338,386.63973 c -0.91719199,-9.09497 -0.91719199,-252.18352 0,-261.27849 C 3.6573556,98.846762 13.915782,73.679819 30.750253,52.334568 35.414698,46.420288 46.588786,35.235048 52.537414,30.525661 67.763444,18.471579 86.097065,9.3617092 104.41597,4.747514 122.76248,0.12636401 113.35879,0.42836976 247.08505,0.16560283 368.7823,-0.07352756 384.23436,0.13996948 396.10026,2.2245059 c 29.36584,5.1588328 54.95619,18.5450661 75.61082,39.5517831 11.2944,11.486924 18.23388,21.249944 25.59542,36.009663 7.35482,14.746246 12.03965,31.001978 13.711,47.575288 0.9172,9.09497 0.9172,252.18352 0,261.27849 -2.64585,26.23653 -13.277,52.43572 -29.55056,72.82383 -12.33679,15.45598 -29.44527,29.19328 -47.15765,37.86537 -17.81103,8.72038 -33.55432,12.82835 -53.81105,14.04115 -11.49226,0.68806 -238.38033,0.66331 -250.26914,-0.0273 z M 272.90035,395.18245 c 29.82649,-3.75041 56.65783,-16.14034 77.95143,-35.99567 24.30318,-22.66162 39.03059,-50.54851 44.0683,-83.44496 1.53034,-9.99311 1.53486,-29.43771 0.009,-39.48266 -6.13627,-40.40108 -28.13179,-75.00896 -61.90238,-97.39759 -40.90866,-27.1209 -93.89159,-30.5672 -138.16085,-8.98672 -22.94124,11.18345 -41.85647,27.76019 -56.05623,49.12598 -11.11044,16.71743 -18.49289,36.17267 -21.72711,57.25833 -1.53233,9.99003 -1.53774,29.43063 -0.011,39.48266 4.92558,32.42985 19.72613,60.66051 43.42919,82.83708 21.49057,20.10657 48.14769,32.64722 77.66872,36.53867 8.70013,1.14685 25.87088,1.17893 34.73074,0.0649 z M 413.12974,146.9668 c 6.08117,-2.28127 10.88346,-5.31693 15.39673,-9.73271 4.75931,-4.6565 7.98043,-9.82398 10.3247,-16.56336 1.56966,-4.5125 1.76999,-5.98937 1.76999,-13.04863 0,-7.05927 -0.20033,-8.536137 -1.76999,-13.048642 -2.34339,-6.73685 -5.38108,-11.602483 -10.25273,-16.422342 -7.88041,-7.796622 -15.93708,-11.249649 -27.40364,-11.744991 -13.01664,-0.562303 -21.84513,2.828417 -30.94915,11.886504 -4.43079,4.408437 -5.97719,6.482359 -8.09898,10.86177 -5.89114,12.159421 -5.94683,24.949941 -0.15941,36.616981 4.26094,8.58979 10.74101,15.17576 18.82939,19.1371 7.12261,3.48835 10.3492,4.12275 19.74133,3.88148 6.96457,-0.17891 8.96006,-0.4683 12.57176,-1.82316 z"
     id="path4" />
  <path
     style="fill:#ffffff;stroke-width:0.636817"
     d="m 240.67755,364.55355 c -33.07394,-4.82946 -62.49311,-24.6705 -79.43909,-53.57575 -6.14146,-10.47566 -11.01865,-23.84695 -13.29123,-36.43917 -1.88663,-10.4537 -1.87144,-26.70253 0.0349,-37.28011 7.13673,-39.60025 35.46043,-72.49961 73.24493,-85.07756 13.5861,-4.52262 18.88883,-5.33639 34.77348,-5.33639 15.88373,0 21.18756,0.81383 34.76976,5.33515 37.77901,12.5761 66.15826,45.54251 73.24037,85.0788 1.89242,10.56457 1.90763,26.83828 0.0348,37.28011 -8.47601,47.25842 -45.80243,83.29944 -93.25714,90.04571 -7.92146,1.12613 -22.28836,1.11144 -30.11077,-0.0308 z"
     id="path5" />
  <path
     style="fill:#ffffff;stroke-width:0.636817"
     d="m 394.13332,117.2438 c -4.42651,-2.69926 -6.72928,-7.83801 -5.44029,-12.14027 1.53583,-5.126173 5.71781,-8.307325 10.92089,-8.307325 6.57911,0 11.77772,6.448255 10.53578,13.068365 -0.47556,2.53496 -3.48382,6.28088 -6.15214,7.66072 -2.53306,1.3099 -7.48632,1.16855 -9.86424,-0.28149 z"
     id="path6" />
</svg>
