<?xml version="1.0" encoding="UTF-8" standalone="no"?>
<!-- Uploaded to: SVG Repo, www.svgrepo.com, Generator: SVG Repo Mixer Tools -->

<svg
   width="800px"
   height="800px"
   viewBox="0 0 24 24"
   fill="none"
   version="1.1"
   id="svg4"
   sodipodi:docname="linkedin.svg"
   inkscape:version="1.3.2 (091e20e, 2023-11-25, custom)"
   xmlns:inkscape="http://www.inkscape.org/namespaces/inkscape"
   xmlns:sodipodi="http://sodipodi.sourceforge.net/DTD/sodipodi-0.dtd"
   xmlns="http://www.w3.org/2000/svg"
   xmlns:svg="http://www.w3.org/2000/svg">
  <defs
     id="defs4" />
  <sodipodi:namedview
     id="namedview4"
     pagecolor="#505050"
     bordercolor="#eeeeee"
     borderopacity="1"
     inkscape:showpageshadow="0"
     inkscape:pageopacity="0"
     inkscape:pagecheckerboard="0"
     inkscape:deskcolor="#505050"
     inkscape:zoom="1.005"
     inkscape:cx="399.50249"
     inkscape:cy="400"
     inkscape:window-width="1920"
     inkscape:window-height="1013"
     inkscape:window-x="-9"
     inkscape:window-y="29"
     inkscape:window-maximized="1"
     inkscape:current-layer="svg4" />
  <path
     d="M6.5 8C7.32843 8 8 7.32843 8 6.5C8 5.67157 7.32843 5 6.5 5C5.67157 5 5 5.67157 5 6.5C5 7.32843 5.67157 8 6.5 8Z"
     fill="#0F0F0F"
     id="path1" />
  <path
     d="M5 10C5 9.44772 5.44772 9 6 9H7C7.55228 9 8 9.44771 8 10V18C8 18.5523 7.55228 19 7 19H6C5.44772 19 5 18.5523 5 18V10Z"
     fill="#0F0F0F"
     id="path2" />
  <path
     d="M11 19H12C12.5523 19 13 18.5523 13 18V13.5C13 12 16 11 16 13V18.0004C16 18.5527 16.4477 19 17 19H18C18.5523 19 19 18.5523 19 18V12C19 10 17.5 9 15.5 9C13.5 9 13 10.5 13 10.5V10C13 9.44771 12.5523 9 12 9H11C10.4477 9 10 9.44772 10 10V18C10 18.5523 10.4477 19 11 19Z"
     fill="#0F0F0F"
     id="path3" />
  <path
     fill-rule="evenodd"
     clip-rule="evenodd"
     d="M20 1C21.6569 1 23 2.34315 23 4V20C23 21.6569 21.6569 23 20 23H4C2.34315 23 1 21.6569 1 20V4C1 2.34315 2.34315 1 4 1H20ZM20 3C20.5523 3 21 3.44772 21 4V20C21 20.5523 20.5523 21 20 21H4C3.44772 21 3 20.5523 3 20V4C3 3.44772 3.44772 3 4 3H20Z"
     fill="#0F0F0F"
     id="path4" />
  <path
     style="fill:#ffffff;stroke-width:0.995025"
     d="m 115.82952,764.62896 c -44.341352,-8.06432 -77.464417,-44.79981 -81.500382,-90.38884 -1.328936,-15.01125 -1.328936,-533.46899 0,-548.48024 3.861397,-43.617166 32.932951,-77.770771 75.986802,-89.270193 l 8.09202,-2.161329 H 400 681.59204 l 8.09202,2.161329 c 19.18766,5.124909 35.46693,14.542443 48.22914,27.9005 8.82903,9.241242 12.27867,14.077175 17.673,24.775196 5.45455,10.817441 8.91398,23.370787 10.08467,36.594497 1.32893,15.01125 1.32893,533.46899 0,548.48024 -3.84271,43.40602 -32.15607,76.90041 -75.44656,89.2524 l -7.63725,2.17912 -279.60199,0.16553 c -234.01179,0.13855 -280.83362,-0.0584 -287.15555,-1.20821 z M 681.43789,697.0559 c 7.24562,-3.66778 13.83682,-10.86922 16.52559,-18.05564 l 2.05056,-5.4806 -0.25577,-275.31704 -0.25578,-275.31705 -2.30949,-4.32777 c -3.49719,-6.5534 -9.40361,-12.39663 -15.80944,-15.6403 L 675.62189,100 H 400 124.37811 l -5.816,2.9441 c -7.2394,3.66463 -13.83632,10.8679 -16.51858,18.03688 C 100.00037,126.44182 100,126.49255 100,400 c 0,273.50744 3.7e-4,273.55818 2.04353,279.01902 3.58434,9.57998 13.28299,18.14509 23.27029,20.55051 1.67441,0.40329 126.17872,0.66512 276.67623,0.58185 L 675.62189,700 Z"
     id="path5"
     transform="scale(0.03)" />
  <path
     style="fill:#ffffff;stroke-width:0.995025"
     d="m 210.12428,265.51127 c -18.29232,-1.84421 -36.38382,-17.77597 -41.41874,-36.47423 -1.83338,-6.80865 -1.41641,-19.68627 0.87577,-27.04699 5.59815,-17.97697 21.53611,-31.43392 40.4578,-34.15986 25.9911,-3.7444 50.79601,14.6223 55.31161,40.95526 3.10883,18.12929 -5.51821,38.39105 -20.61181,48.40961 -10.69915,7.10169 -21.32935,9.65561 -34.61463,8.31621 z"
     id="path6"
     transform="scale(0.03)" />
  <path
     style="fill:#ffffff;stroke-width:0.995025"
     d="m 191.04478,631.47674 c -6.28686,-2.04005 -9.63513,-4.09274 -14.19143,-8.70013 -5.3519,-5.41194 -8.09023,-11.04362 -9.24179,-19.00679 -1.18784,-8.21408 -1.18784,-265.99223 0,-274.20631 1.69244,-11.70345 8.48193,-21.00653 18.9556,-25.97329 5.44433,-2.58177 5.60133,-2.5952 30.34826,-2.5952 h 24.87562 l 5.47264,2.80344 c 7.17092,3.6734 12.03775,8.50546 15.552,15.44088 l 2.85596,5.63628 v 141.79105 141.79104 l -2.28535,4.63916 c -3.43579,6.9745 -9.27181,13.00346 -15.7727,16.29413 l -5.82255,2.94731 -23.38308,0.21497 c -16.97275,0.15605 -24.4742,-0.13908 -27.36318,-1.07654 z"
     id="path7"
     transform="scale(0.03)" />
  <path
     style="fill:#ffffff;stroke-width:0.995025"
     d="m 356.72178,631.20929 c -6.4545,-2.30609 -12.54378,-6.80893 -16.41346,-12.13725 -6.94541,-9.56343 -6.53401,0.61136 -6.2427,-154.39542 l 0.26274,-139.801 2.45578,-4.97512 c 3.13805,-6.3573 10.0924,-13.31164 16.44969,-16.44969 4.88819,-2.41287 5.4098,-2.45579 29.85075,-2.45579 24.74693,0 24.90393,0.0134 30.34826,2.5952 6.41949,3.04422 13.11793,9.52614 16.00285,15.48558 2.40678,4.97174 3.83433,13.79521 3.91658,24.20778 0.0571,7.22488 0.10268,7.36218 1.43103,4.30849 5.99182,-13.77434 21.58332,-29.71703 36.34189,-37.16049 31.74358,-16.00982 85.9654,-12.10096 119.16349,8.59051 25.57605,15.94084 39.56786,40.20184 42.1108,73.01771 1.16713,15.06122 1.15729,203.6509 -0.011,211.73002 -1.69244,11.70345 -8.48193,21.00653 -18.9556,25.97328 -5.44433,2.58179 -5.60133,2.59521 -30.34826,2.59521 -24.44095,0 -24.96256,-0.0429 -29.85075,-2.45579 -6.35729,-3.13804 -13.31164,-10.09239 -16.44968,-16.44968 l -2.45579,-4.97513 -0.51385,-93.53234 c -0.47411,-86.29714 -0.64972,-93.8787 -2.2702,-98.00995 -3.02452,-7.71067 -7.79577,-13.19059 -14.72934,-16.91707 -5.88783,-3.16444 -7.16042,-3.4509 -16.9026,-3.80483 -8.55686,-0.31086 -12.00543,0.0206 -18.36312,1.76477 -19.60354,5.37815 -37.06253,19.02169 -44.63114,34.87753 l -3.08726,6.46766 -0.51991,83.58209 c -0.47557,76.45306 -0.66818,83.95818 -2.25833,87.99138 -3.2759,8.30891 -9.44508,14.90221 -17.61977,18.83112 -5.38464,2.58795 -5.84863,2.63401 -28.85573,2.86467 -19.37845,0.19427 -24.14901,-0.0392 -27.85533,-1.36345 z"
     id="path8"
     transform="scale(0.03)" />
</svg>
